<?xml version="1.0" encoding="utf-8" standalone="no"?>
<!DOCTYPE svg PUBLIC "-//W3C//DTD SVG 1.1//EN"
  "http://www.w3.org/Graphics/SVG/1.1/DTD/svg11.dtd">
<svg xmlns:xlink="http://www.w3.org/1999/xlink" width="288pt" height="180pt" viewBox="0 0 288 180" xmlns="http://www.w3.org/2000/svg" version="1.1">
 <metadata>
  <rdf:RDF xmlns:dc="http://purl.org/dc/elements/1.1/" xmlns:cc="http://creativecommons.org/ns#" xmlns:rdf="http://www.w3.org/1999/02/22-rdf-syntax-ns#">
   <cc:Work>
    <dc:type rdf:resource="http://purl.org/dc/dcmitype/StillImage"/>
    <dc:date>2025-02-04T15:27:16.973671</dc:date>
    <dc:format>image/svg+xml</dc:format>
    <dc:creator>
     <cc:Agent>
      <dc:title>Matplotlib v3.9.1, https://matplotlib.org/</dc:title>
     </cc:Agent>
    </dc:creator>
   </cc:Work>
  </rdf:RDF>
 </metadata>
 <defs>
  <style type="text/css">*{stroke-linejoin: round; stroke-linecap: butt}</style>
 </defs>
 <g id="figure_1">
  <g id="patch_1">
   <path d="M 0 180 
L 288 180 
L 288 0 
L 0 0 
z
" style="fill: #ffffff"/>
  </g>
  <g id="axes_1">
   <g id="PatchCollection_1">
    <path d="M 83.845161 165.193548 
L 204.154839 165.193548 
L 205.099127 165.163873 
L 206.039689 165.074964 
L 206.972812 164.927171 
L 207.894814 164.72108 
L 208.802056 164.457502 
L 209.690957 164.137477 
L 210.55801 163.76227 
L 211.399792 163.33336 
L 212.212982 162.852441 
L 212.99437 162.32141 
L 213.740873 161.742364 
L 214.449544 161.117586 
L 215.117586 160.449544 
L 215.742364 159.740873 
L 216.32141 158.99437 
L 216.852441 158.212982 
L 217.33336 157.399792 
L 217.76227 156.55801 
L 218.137477 155.690957 
L 218.457502 154.802056 
L 218.72108 153.894814 
L 218.927171 152.972812 
L 219.074964 152.039689 
L 219.163873 151.099127 
L 219.193548 150.154839 
L 219.163873 149.21055 
L 219.074964 148.269989 
L 218.927171 147.336866 
L 218.72108 146.414864 
L 218.457502 145.507622 
L 218.137477 144.61872 
L 217.76227 143.751668 
L 157.607431 23.44199 
L 157.178522 22.600208 
L 156.697603 21.787018 
L 156.166572 21.00563 
L 155.587525 20.259127 
L 154.962748 19.550456 
L 154.294705 18.882414 
L 153.586034 18.257636 
L 152.839532 17.67859 
L 152.058144 17.147559 
L 151.244954 16.66664 
L 150.403171 16.23773 
L 149.536118 15.862523 
L 148.647217 15.542498 
L 147.739975 15.27892 
L 146.817973 15.072829 
L 145.88485 14.925036 
L 144.944288 14.836127 
L 144 14.806452 
L 143.055712 14.836127 
L 142.11515 14.925036 
L 141.182027 15.072829 
L 140.260025 15.27892 
L 139.352783 15.542498 
L 138.463882 15.862523 
L 137.596829 16.23773 
L 136.755046 16.66664 
L 135.941856 17.147559 
L 135.160468 17.67859 
L 134.413966 18.257636 
L 133.705295 18.882414 
L 133.037252 19.550456 
L 132.412475 20.259127 
L 131.833428 21.00563 
L 131.302397 21.787018 
L 130.821478 22.600208 
L 130.392569 23.44199 
L 70.23773 143.751668 
L 69.862523 144.61872 
L 69.542498 145.507622 
L 69.27892 146.414864 
L 69.072829 147.336866 
L 68.925036 148.269989 
L 68.836127 149.21055 
L 68.806452 150.154839 
L 68.836127 151.099127 
L 68.925036 152.039689 
L 69.072829 152.972812 
L 69.27892 153.894814 
L 69.542498 154.802056 
L 69.862523 155.690957 
L 70.23773 156.55801 
L 70.66664 157.399792 
L 71.147559 158.212982 
L 71.67859 158.99437 
L 72.257636 159.740873 
L 72.882414 160.449544 
L 73.550456 161.117586 
L 74.259127 161.742364 
L 75.00563 162.32141 
L 75.787018 162.852441 
L 76.600208 163.33336 
L 77.44199 163.76227 
L 78.309043 164.137477 
L 79.197944 164.457502 
L 80.105186 164.72108 
L 81.027188 164.927171 
L 81.960311 165.074964 
L 82.900873 165.163873 
z
" clip-path="url(#p16c219d260)" style="fill: #e57200; fill-opacity: 0.4"/>
   </g>
   <g id="LineCollection_1"/>
   <g id="PathCollection_1">
    <defs>
     <path id="meabc9c6b84" d="M 0 7.5 
C 1.989023 7.5 3.896849 6.709753 5.303301 5.303301 
C 6.709753 3.896849 7.5 1.989023 7.5 0 
C 7.5 -1.989023 6.709753 -3.896849 5.303301 -5.303301 
C 3.896849 -6.709753 1.989023 -7.5 0 -7.5 
C -1.989023 -7.5 -3.896849 -6.709753 -5.303301 -5.303301 
C -6.709753 -3.896849 -7.5 -1.989023 -7.5 0 
C -7.5 1.989023 -6.709753 3.896849 -5.303301 5.303301 
C -3.896849 6.709753 -1.989023 7.5 0 7.5 
z
" style="stroke: #232d4b"/>
    </defs>
    <g clip-path="url(#p16c219d260)">
     <use xlink:href="#meabc9c6b84" x="83.845161" y="150.154839" style="fill: #232d4b; stroke: #232d4b"/>
     <use xlink:href="#meabc9c6b84" x="204.154839" y="150.154839" style="fill: #232d4b; stroke: #232d4b"/>
     <use xlink:href="#meabc9c6b84" x="144" y="29.845161" style="fill: #232d4b; stroke: #232d4b"/>
    </g>
   </g>
  </g>
 </g>
 <defs>
  <clipPath id="p16c219d260">
   <rect x="10.8" y="10.8" width="266.4" height="158.4"/>
  </clipPath>
 </defs>
</svg>
